<svg role="img" viewBox="0 0 24 24" xmlns="http://www.w3.org/2000/svg"><path d="M12 2C6.477 2 2 6.477 2 12s4.477 10 10 10 10-4.477 10-10S17.523 2 12 2zm5.17 14.76a.626.626 0 01-.79.1c-2.16-1.32-4.88-1.62-8.08-.89a.626.626 0 01-.75-.47.626.626 0 01.47-.75c3.5-.8 6.53-.46 8.96 1.02.3.18.4.57.19.99zm1.38-3.04a.78.78 0 01-1.07.26c-2.47-1.52-6.24-1.96-9.17-1.07a.78.78 0 01-.97-.5.78.78 0 01.5-.97c3.34-1.02 7.5-.52 10.34 1.22.37.22.5.7.27 1.06zm.12-3.16c-2.97-1.76-7.86-1.93-10.7-1.07a.94.94 0 01-1.16-.62.94.94 0 01.62-1.16c3.26-1 8.67-.8 12.1 1.26a.94.94 0 01.34 1.29.94.94 0 01-1.2.3z"/></svg>
